<!-- Generator: Adobe Illustrator 18.1.0, SVG Export Plug-In  -->
<svg version="1.1"
	 xmlns="http://www.w3.org/2000/svg" xmlns:xlink="http://www.w3.org/1999/xlink" xmlns:a="http://ns.adobe.com/AdobeSVGViewerExtensions/3.0/"
	 x="0px" y="0px" width="56.5px" height="49px" viewBox="0 0 56.5 49" enable-background="new 0 0 56.5 49" xml:space="preserve">
<defs>
</defs>
<path fill="#231F20" d="M55.5,23.5H3.3L24.3,1.7c0.4-0.4,0.4-1,0-1.4c-0.4-0.4-1-0.4-1.4,0L0.3,23.8c0,0,0,0,0,0l0,0
	c0,0-0.1,0.1-0.1,0.1c0,0.1-0.1,0.1-0.1,0.2C0,24.2,0,24.4,0,24.5c0,0,0,0,0,0s0,0,0,0c0,0.1,0,0.2,0.1,0.4c0,0.1,0.1,0.1,0.1,0.2
	c0,0,0,0.1,0.1,0.1l0,0c0,0,0,0,0,0l22.5,23.5c0.2,0.2,0.5,0.3,0.7,0.3c0.2,0,0.5-0.1,0.7-0.3c0.4-0.4,0.4-1,0-1.4L3.3,25.5h52.2
	c0.6,0,1-0.4,1-1S56.1,23.5,55.5,23.5z"/>
</svg>
