<svg width="101" height="61" viewBox="0 0 101 61" fill="none" xmlns="http://www.w3.org/2000/svg">
<path fill-rule="evenodd" clip-rule="evenodd" d="M40.6069 33.0869C39.417 37.7456 35.2199 41.1879 30.2245 41.1879C24.3041 41.1879 19.5046 36.3521 19.5046 30.3864C19.5046 24.4211 24.3041 19.5853 30.2245 19.5853C35.4108 19.5853 39.7365 23.2962 40.7298 28.2263H60.0254C58.8935 12.6381 45.9843 0.345703 30.2245 0.345703C13.7214 0.345703 0.342773 13.8256 0.342773 30.4542C0.342773 47.0824 13.7214 60.5626 30.2245 60.5626C45.8477 60.5626 58.6679 48.4821 59.9919 33.0869H40.6069Z" fill="#01A2FF"/>
<path fill-rule="evenodd" clip-rule="evenodd" d="M60.2359 33.0869C61.4258 37.7456 65.6228 41.1879 70.6183 41.1879C76.5387 41.1879 81.3382 36.3521 81.3382 30.3864C81.3382 24.4211 76.5387 19.5853 70.6183 19.5853C65.432 19.5853 61.1063 23.2962 60.113 28.2263H40.8174C41.9493 12.6381 54.8585 0.345703 70.6183 0.345703C87.1214 0.345703 100.5 13.8256 100.5 30.4542C100.5 47.0824 87.1214 60.5626 70.6183 60.5626C54.9951 60.5626 42.1749 48.4821 40.8508 33.0869H60.2359Z" fill="white" fill-opacity="0.5"/>
<path fill-rule="evenodd" clip-rule="evenodd" d="M40.8508 33.0875C41.5149 40.8088 45.0707 47.6963 50.4215 52.6441C55.7723 47.6963 59.3281 40.8088 59.9921 33.0875H40.8508ZM60.0256 28.2269C59.453 20.3411 55.8664 13.2988 50.4215 8.26465C44.9766 13.2988 41.39 20.3411 40.8174 28.2269H60.0256Z" fill="#80D1FF"/>
</svg>
